#!OML:ASF X:\für Bonn\!DataBase\2005_08_10_Bjorn_Final\c3d\bjorn.ASF
:FULLY-SPECIFIED
:DEGREES
161
root 0.964665 19.1423 2.11811 -177.736 1.05947 -181.465
lowerback -12.8592 2.30363 1.92208
upperback 5.28603 2.95992 -0.983934
thorax 13.2492 1.63926 -1.44932
lowerneck 0.944564 1.15101 1.99287
upperneck 27.7898 -1.5502 -1.41019
head 8.45584 -1.86511 -1.10546
rclavicle 2.21272e-014 2.33572e-015
rhumerus 66.7843 8.88228 -54.0265
rradius 16.4708
rwrist 34.7015
rhand -10.787 9.59604
rfingers 7.12502
rthumb 15.2257 -19.8237
lclavicle 2.21272e-014 2.33572e-015
lhumerus 72.8587 -18.9699 50.1196
lradius 10.827
lwrist -43.767
lhand -21.0378 -11.9863
lfingers 7.12502
lthumb 5.33789 17.9265
rfemur 166.751 -168.21 -166.295
rtibia 34.4086
rfoot -21.3191 12.0778
rtoes -20.213
lfemur -11.441 7.10119 -17.4333
ltibia 31.191
lfoot -20.6088 -7.40314
ltoes -22.5657
162
root 0.967406 19.1042 2.15127 -177.937 1.12849 -181.482
lowerback -12.7752 2.31568 1.91566
upperback 5.40259 2.99126 -1.00784
thorax 13.336 1.65992 -1.46439
lowerneck 1.0253 1.27739 2.12706
upperneck 28.3541 -1.51985 -1.45494
head 8.64104 -1.88561 -1.15846
rclavicle 2.40964e-014 -9.64106e-015
rhumerus 67.2263 8.80352 -53.4407
rradius 16.3864
rwrist 34.5475
rhand -10.6177 9.6237
rfingers 7.12502
rthumb 15.3887 -19.7836
lclavicle 2.40964e-014 -9.64106e-015
lhumerus 72.4791 -18.6698 51.0796
lradius 11.2795
lwrist -44.4315
lhand -20.6416 -12.0497
lfingers 7.12502
lthumb 5.72042 17.8531
rfemur 166.996 -168.125 -166.336
rtibia 34.3383
rfoot -21.5385 12.2702
rtoes -19.9735
lfemur -11.0329 7.11028 -17.4421
ltibia 31.046
lfoot -20.4492 -7.36635
ltoes -22.6749
163
root 0.968746 19.0657 2.18654 -178.226 1.19538 -181.496
lowerback -12.5589 2.31329 1.92372
upperback 5.54304 3.00442 -1.01849
thorax 13.3685 1.67436 -1.48143
lowerneck 1.11582 1.4144 2.27578
upperneck 28.9753 -1.48776 -1.53087
head 8.8466 -1.9118 -1.22713
rclavicle -5.76972e-014 1.42628e-014
rhumerus 67.617 8.73967 -52.9827
rradius 16.3144
rwrist 34.4222
rhand -10.5192 9.65337
rfingers 7.12502
rthumb 15.4836 -19.7466
lclavicle -5.76972e-014 1.42628e-014
lhumerus 72.2222 -18.3942 51.681
lradius 11.6736
lwrist -44.7021
lhand -20.3469 -12.0892
lfingers 7.12502
lthumb 6.00488 17.8057
rfemur 167.285 -168.099 -166.385
rtibia 34.2339
rfoot -21.58 12.4179
rtoes -19.501
lfemur -10.6426 7.09454 -17.4536
ltibia 30.9687
lfoot -20.178 -7.34382
ltoes -22.513
164
root 0.970692 19.0297 2.22176 -178.586 1.26091 -181.491
lowerback -12.2307 2.3078 1.94532
upperback 5.68568 3.01391 -1.02097
thorax 13.3347 1.68881 -1.50186
lowerneck 1.46143 1.55974 2.47398
upperneck 29.5115 -1.45603 -1.62446
head 8.97809 -1.94095 -1.30739
rclavicle 1.49523e-014 -1.52567e-014
rhumerus 67.8754 8.70357 -52.7163
rradius 16.2717
rwrist 34.2663
rhand -10.4699 9.68729
rfingers 7.12502
rthumb 15.5311 -19.709
lclavicle 1.49523e-014 -1.52567e-014
lhumerus 72.0815 -18.2386 51.9006
lradius 12.0051
lwrist -44.4291
lhand -20.1604 -11.9989
lfingers 7.12502
lthumb 6.18496 17.8909
rfemur 167.616 -168.207 -166.397
rtibia 34.1034
rfoot -21.5004 12.3903
rtoes -18.972
lfemur -10.3049 6.99981 -17.4466
ltibia 30.9678
lfoot -19.8828 -7.21885
ltoes -22.3439
165
root 0.971915 19.0014 2.2583 -178.993 1.31606 -181.484
lowerback -11.8257 2.30832 1.99474
upperback 5.85607 3.03511 -1.04335
thorax 13.2892 1.71467 -1.55907
lowerneck 1.50231 1.70997 2.68084
upperneck 30.288 -1.45869 -1.68108
head 9.25423 -1.98484 -1.38988
rclavicle 1.9338e-014 -3.45388e-015
rhumerus 68.0243 8.60379 -52.7336
rradius 16.2274
rwrist 34.1697
rhand -10.5229 9.74398
rfingers 7.12502
rthumb 15.48 -19.6563
lclavicle 1.9338e-014 -3.45388e-015
lhumerus 72.1578 -18.2322 51.5327
lradius 12.2629
lwrist -43.5293
lhand -20.2185 -11.8251
lfingers 7.12502
lthumb 6.12889 18.0662
rfemur 167.977 -168.547 -166.391
rtibia 33.9725
rfoot -21.2607 12.157
rtoes -18.3373
lfemur -10.0496 6.88422 -17.4404
ltibia 31.0452
lfoot -19.5761 -7.098
ltoes -22.0903
166
root 0.973729 18.9802 2.2963 -179.412 1.38094 -181.477
lowerback -11.3927 2.28262 2.01088
upperback 6.02882 3.02356 -1.02554
thorax 13.2224 1.7204 -1.56189
lowerneck 1.38014 1.89525 2.7751
upperneck 31.1607 -1.41888 -1.72899
head 9.60122 -2.02062 -1.45296
rclavicle -2.08041e-014 -1.11816e-015
rhumerus 68.0802 8.64074 -52.7645
rradius 16.2711
rwrist 33.8802
rhand -10.6515 9.756
rfingers 7.12502
rthumb 15.3562 -19.6538
lclavicle -2.08041e-014 -1.11816e-015
lhumerus 72.2927 -18.2629 50.8725
lradius 12.3989
lwrist -42.1734
lhand -20.3206 -11.5165
lfingers 7.12502
lthumb 6.03028 18.3777
rfemur 168.304 -168.965 -166.36
rtibia 33.8752
rfoot -20.9669 11.8172
rtoes -17.9609
lfemur -9.86461 6.69274 -17.4326
ltibia 31.2099
lfoot -19.3903 -6.92076
ltoes -21.9315
167
root 0.974541 18.9646 2.33623 -179.821 1.43493 -181.452
lowerback -10.9475 2.28228 2.10208
upperback 6.19079 3.04023 -1.048
thorax 13.144 1.74881 -1.64537
lowerneck 1.21406 2.07378 2.90911
upperneck 32.0531 -1.41804 -1.70674
head 9.97072 -2.06225 -1.50386
rclavicle 3.86077e-015 1.57537e-014
rhumerus 68.0076 8.69728 -52.6743
rradius 16.3898
rwrist 33.2623
rhand -10.7613 9.77433
rfingers 7.12502
rthumb 15.2504 -19.6435
lclavicle 3.86077e-015 1.57537e-014
lhumerus 72.6306 -18.5122 49.6215
lradius 12.4605
lwrist -40.1929
lhand -20.5531 -11.2107
lfingers 7.12502
lthumb 5.80581 18.6898
rfemur 168.555 -169.378 -166.313
rtibia 33.866
rfoot -20.5987 11.545
rtoes -17.2056
lfemur -9.73479 6.46245 -17.4147
ltibia 31.4441
lfoot -19.2806 -6.79162
ltoes -21.5027
168
root 0.975737 18.951 2.3784 -180.209 1.48957 -181.446
lowerback -10.5117 2.26361 2.14834
upperback 6.34654 3.03781 -1.05174
thorax 13.0588 1.76315 -1.68715
lowerneck 1.03887 2.25001 3.01303
upperneck 32.9175 -1.40549 -1.73086
head 10.338 -2.1046 -1.56594
rclavicle 5.15598e-015 7.20594e-016
rhumerus 67.9615 9.01531 -51.854
rradius 16.6767
rwrist 31.7761
rhand -10.8746 9.61563
rfingers 7.12502
rthumb 15.1413 -19.8105
lclavicle 5.15598e-015 7.20594e-016
lhumerus 72.8513 -18.7611 48.5104
lradius 12.4919
lwrist -38.1943
lhand -20.7652 -10.9723
lfingers 7.12502
lthumb 5.60107 18.9337
rfemur 168.727 -169.793 -166.278
rtibia 33.9754
rfoot -20.3624 11.2304
rtoes -16.71
lfemur -9.62022 6.168 -17.4272
ltibia 31.725
lfoot -19.2659 -6.58248
ltoes -21.1545
169
root 0.976208 18.9392 2.42196 -180.488 1.55751 -181.442
lowerback -10.1793 2.25654 2.20102
upperback 6.48086 3.04693 -1.06459
thorax 13.0141 1.78268 -1.73686
lowerneck 0.981506 2.40938 3.11486
upperneck 33.6275 -1.39649 -1.74023
head 10.6294 -2.14109 -1.61709
rclavicle 1.66793e-015 4.42296e-015
rhumerus 67.9398 9.49848 -50.3146
rradius 17.1105
rwrist 29.5391
rhand -11.0174 9.37225
rfingers 7.12502
rthumb 15.0038 -20.0642
lclavicle 1.66793e-015 4.42296e-015
lhumerus 72.9995 -19.0216 47.5215
lradius 12.5562
lwrist -36.3657
lhand -20.8528 -10.7525
lfingers 7.12502
lthumb 5.5165 19.1557
rfemur 168.734 -170.273 -166.226
rtibia 34.2001
rfoot -20.279 10.8559
rtoes -16.2492
lfemur -9.60668 5.92821 -17.4509
ltibia 32.0213
lfoot -19.3162 -6.38805
ltoes -20.9592
170
root 0.977484 18.9304 2.46645 -180.708 1.62464 -181.437
lowerback -9.89856 2.254 2.2832
upperback 6.60709 3.05841 -1.09613
thorax 12.9951 1.80675 -1.82147
lowerneck 1.04921 2.5568 3.16696
upperneck 34.1904 -1.38907 -1.70699
head 10.8433 -2.17486 -1.63793
rclavicle -1.18153e-014 9.91439e-015
rhumerus 67.9311 10.0015 -48.6466
rradius 17.5887
rwrist 27.2244
rhand -11.1305 9.07796
rfingers 7.12502
rthumb 14.8948 -20.3666
lclavicle -1.18153e-014 9.91439e-015
lhumerus 73.1092 -19.2719 46.5812
lradius 12.6496
lwrist -34.731
lhand -20.7786 -10.6261
lfingers 7.12502
lthumb 5.58806 19.2803
rfemur 168.66 -170.754 -166.16
rtibia 34.4834
rfoot -20.3249 10.4452
rtoes -15.949
lfemur -9.64264 5.64972 -17.4781
ltibia 32.2937
lfoot -19.4046 -6.09771
ltoes -20.8941
